<svg xmlns="http://www.w3.org/2000/svg" width="32" height="32" viewBox="0 0 40 40">
  <path
    fill-rule="evenodd"
    d="M32 13.8162V10C32 9.46957 31.7893 8.96086 31.4142 8.58579C31.0391 8.21071 30.5304 8 30 8H8C7.46957 8 6.96086 8.21071 6.58579 8.58579C6.21071 8.96086 6 9.46957 6 10V26C6 26.5304 6.21071 27.0391 6.58579 27.4142C6.96086 27.7893 7.46957 28 8 28H23V31C22.9984 31.1763 23.0435 31.3499 23.1306 31.5032C23.2177 31.6564 23.3438 31.7839 23.4961 31.8728C23.6484 31.9616 23.8214 32.0086 23.9977 32.009C24.174 32.0094 24.3473 31.9632 24.5 31.875L27.5 30.1575L30.5 31.875C30.6527 31.9632 30.826 32.0094 31.0023 32.009C31.1786 32.0086 31.3516 31.9616 31.5039 31.8728C31.6562 31.7839 31.7823 31.6564 31.8694 31.5032C31.9565 31.3499 32.0016 31.1763 32 31V23.1838C32.6321 22.5784 33.1352 21.8513 33.4789 21.0464C33.8225 20.2414 33.9997 19.3752 33.9997 18.5C33.9997 17.6248 33.8225 16.7586 33.4789 15.9536C33.1352 15.1487 32.6321 14.4216 32 13.8162ZM19 21H12C11.7348 21 11.4804 20.8946 11.2929 20.7071C11.1054 20.5196 11 20.2652 11 20C11 19.7348 11.1054 19.4804 11.2929 19.2929C11.4804 19.1054 11.7348 19 12 19H19C19.2652 19 19.5196 19.1054 19.7071 19.2929C19.8946 19.4804 20 19.7348 20 20C20 20.2652 19.8946 20.5196 19.7071 20.7071C19.5196 20.8946 19.2652 21 19 21ZM19 17H12C11.7348 17 11.4804 16.8946 11.2929 16.7071C11.1054 16.5196 11 16.2652 11 16C11 15.7348 11.1054 15.4804 11.2929 15.2929C11.4804 15.1054 11.7348 15 12 15H19C19.2652 15 19.5196 15.1054 19.7071 15.2929C19.8946 15.4804 20 15.7348 20 16C20 16.2652 19.8946 16.5196 19.7071 16.7071C19.5196 16.8946 19.2652 17 19 17ZM30 29.2763L28 28.1313C27.8489 28.0449 27.6778 27.9994 27.5037 27.9994C27.3297 27.9994 27.1586 28.0449 27.0075 28.1313L25.0075 29.2763V24.5C25.7995 24.8309 26.6492 25.0013 27.5075 25.0013C28.3658 25.0013 29.2155 24.8309 30.0075 24.5L30 29.2763ZM27.5 23C26.61 23 25.74 22.7361 24.9999 22.2416C24.2599 21.7471 23.6831 21.0443 23.3425 20.2221C23.0019 19.3998 22.9128 18.495 23.0865 17.6221C23.2601 16.7492 23.6887 15.9474 24.318 15.318C24.9474 14.6887 25.7492 14.2601 26.6221 14.0865C27.495 13.9128 28.3998 14.0019 29.2221 14.3425C30.0443 14.6831 30.7471 15.2599 31.2416 15.9999C31.7361 16.74 32 17.61 32 18.5C32 19.0909 31.8836 19.6761 31.6575 20.2221C31.4313 20.768 31.0998 21.2641 30.682 21.682C30.2641 22.0998 29.768 22.4313 29.2221 22.6575C28.6761 22.8836 28.0909 23 27.5 23Z"
    fill="white"
  />
</svg> 