<svg
  xmlns="http://www.w3.org/2000/svg"
  width="32"
  height="32"
  viewBox="0 0 40 40"
>
  <path
    data-v-1139a0f7=""
    fill-rule="evenodd"
    d="M25.7075 7.2925L30.7075 12.2925C30.8003 12.3854 30.874 12.4958 30.9241 12.6172C30.9743 12.7385 31.0001 12.8686 31 13V27C31 27.5304 30.7893 28.0391 30.4142 28.4142C30.0391 28.7893 29.5304 29 29 29H27V31C27 31.5304 26.7893 32.0391 26.4142 32.4142C26.0391 32.7893 25.5304 33 25 33H11C10.4696 33 9.96086 32.7893 9.58579 32.4142C9.21071 32.0391 9 31.5304 9 31V13C9 12.4696 9.21071 11.9609 9.58579 11.5858C9.96086 11.2107 10.4696 11 11 11H13V9C13 8.46957 13.2107 7.96086 13.5858 7.58579C13.9609 7.21071 14.4696 7 15 7H25C25.1314 6.9999 25.2615 7.02568 25.3829 7.07586C25.5042 7.1261 25.6146 7.19973 25.7075 7.2925ZM27 27H29V13.4138L24.5863 9H15V11H21C21.1314 10.9999 21.2615 11.0257 21.3829 11.0759C21.5042 11.1261 21.6146 11.1997 21.7075 11.2925L26.7075 16.2925C26.8003 16.3854 26.8739 16.4958 26.9241 16.6172C26.9743 16.7385 27.0001 16.8686 27 17V27ZM13.5337 19.9333C13.5337 17.7321 15.5108 16 17.867 16C20.2232 16 22.2004 17.7321 22.2004 19.9333C22.2004 21.7746 20.8118 23.2915 18.9823 23.7349C18.9415 23.9606 18.8328 24.1703 18.6684 24.3347C18.4559 24.5473 18.1676 24.6667 17.867 24.6667C17.5664 24.6667 17.2782 24.5473 17.0656 24.3347C16.8531 24.1222 16.7337 23.8339 16.7337 23.5333V22.7333C16.7337 22.4328 16.8531 22.1445 17.0656 21.9319C17.2782 21.7194 17.5664 21.6 17.867 21.6C19.0651 21.6 19.9337 20.7952 19.9337 19.9333C19.9337 19.0715 19.0651 18.2667 17.867 18.2667C16.6689 18.2667 15.8004 19.0715 15.8004 19.9333V20.3333C15.8004 20.6339 15.681 20.9222 15.4684 21.1347C15.2559 21.3473 14.9676 21.4667 14.667 21.4667C14.3664 21.4667 14.0782 21.3473 13.8656 21.1347C13.6531 20.9222 13.5337 20.6339 13.5337 20.3333V19.9333ZM17.5679 25.6295C17.8653 25.5703 18.1736 25.6007 18.4538 25.7167C18.734 25.8328 18.9735 26.0293 19.1419 26.2815C19.3104 26.5336 19.4004 26.8301 19.4004 27.1333C19.4004 27.54 19.2388 27.93 18.9513 28.2176C18.6637 28.5051 18.2737 28.6667 17.867 28.6667C17.5638 28.6667 17.2673 28.5767 17.0152 28.4083C16.763 28.2398 16.5665 28.0003 16.4504 27.7201C16.3344 27.4399 16.304 27.1316 16.3632 26.8342C16.4223 26.5368 16.5684 26.2635 16.7828 26.0491C16.9972 25.8347 17.2704 25.6886 17.5679 25.6295Z"
  />
</svg> 