<svg xmlns="http://www.w3.org/2000/svg" width="32" height="32" viewBox="0 0 40 40">
  <path
    fill-rule="evenodd"
    d="M30 7H13C11.9391 7 10.9217 7.42143 10.1716 8.17157C9.42143 8.92172 9 9.93913 9 11V32C9 32.2652 9.10536 32.5196 9.29289 32.7071C9.48043 32.8946 9.73478 33 10 33H28C28.2652 33 28.5196 32.8946 28.7071 32.7071C28.8946 32.5196 29 32.2652 29 32C29 31.7348 28.8946 31.4804 28.7071 31.2929C28.5196 31.1054 28.2652 31 28 31H11C11 30.4696 11.2107 29.9609 11.5858 29.5858C11.9609 29.2107 12.4696 29 13 29H30C30.2652 29 30.5196 28.8946 30.7071 28.7071C30.8946 28.5196 31 28.2652 31 28V8C31 7.73478 30.8946 7.48043 30.7071 7.29289C30.5196 7.10536 30.2652 7 30 7ZM27 19L23.7987 16.6C23.7122 16.5351 23.6069 16.5 23.4988 16.5C23.3906 16.5 23.2853 16.5351 23.1987 16.6L20 19V9H27V19Z"
    fill="white"
  />
</svg> 