<svg
  xmlns="http://www.w3.org/2000/svg"
  width="32"
  height="32"
  viewBox="0 0 40 40"
>
  <path
    fill-rule="evenodd"
    d="M16.5002 18.5538C16.6522 18.466 16.7785 18.3397 16.8663 18.1876C16.954 18.0356 17.0002 17.8631 17.0002 17.6875V8.6875C16.9993 8.52807 16.9603 8.37116 16.8864 8.22986C16.8126 8.08857 16.706 7.96698 16.5756 7.87524C16.4452 7.7835 16.2948 7.72426 16.1368 7.70248C15.9789 7.68069 15.818 7.69699 15.6677 7.75C12.7489 8.78302 10.2943 10.8233 8.7452 13.5041C7.19608 16.1849 6.65401 19.3303 7.21643 22.375C7.24559 22.5324 7.31212 22.6806 7.41044 22.807C7.50876 22.9334 7.63599 23.0343 7.78143 23.1013C7.9125 23.1625 8.05549 23.1941 8.20018 23.1938C8.3757 23.1938 8.54814 23.1477 8.70018 23.06L16.5002 18.5538ZM15.0002 10.2025V17.11L9.01518 20.5638C9.00018 20.375 9.00018 20.185 9.00018 20C9.00196 17.973 9.56305 15.9857 10.6217 14.2571C11.6803 12.5284 13.1954 11.1254 15.0002 10.2025ZM33.0002 20C33.0012 22.8539 32.063 25.6288 30.3304 27.8967C28.5979 30.1645 26.1672 31.7991 23.4134 32.5484C20.6596 33.2977 17.7357 33.12 15.093 32.0427C12.4502 30.9655 10.2354 29.0485 8.79018 26.5875C8.72281 26.4738 8.67864 26.3479 8.66022 26.2171C8.64179 26.0862 8.64948 25.953 8.68284 25.8252C8.7162 25.6973 8.77456 25.5774 8.85457 25.4722C8.93457 25.367 9.03462 25.2788 9.14893 25.2125L19.0002 19.4788V8C19.0002 7.73478 19.1055 7.48043 19.2931 7.29289C19.4806 7.10536 19.735 7 20.0002 7C22.2688 7.00116 24.4976 7.59567 26.4654 8.72451C28.4332 9.85335 30.0715 11.4773 31.2177 13.435C31.2314 13.455 31.2439 13.475 31.2564 13.4963C31.2689 13.5175 31.2814 13.5425 31.2927 13.565C32.4143 15.524 33.0031 17.7427 33.0002 20Z"
    fill="white"
  />
</svg> 