<svg xmlns="http://www.w3.org/2000/svg" width="28" height="28" viewBox="0 0 28 28" fill="none">
  <path
    data-v-3e66491d=""
    fill-rule="evenodd"
    d="M18.749 1.43604H9.25057C4.50134 1.43604 3.32031 2.70501 3.32031 7.76834V21.9155C3.32031 25.2576 5.15467 26.0491 7.37852 23.6619L7.39108 23.6494C8.42134 22.5563 9.99185 22.6442 10.8839 23.8378L12.1529 25.534C13.1706 26.8783 14.8165 26.8783 15.8342 25.534L17.1031 23.8378C18.0077 22.6317 19.5783 22.5437 20.6085 23.6494C22.8449 26.0365 24.6667 25.245 24.6667 21.903V7.76834C24.6793 2.70501 23.4983 1.43604 18.749 1.43604ZM8.69775 14.0001C8.00672 14.0001 7.44134 13.4348 7.44134 12.7437C7.44134 12.0527 8.00672 11.4873 8.69775 11.4873C9.38877 11.4873 9.95416 12.0527 9.95416 12.7437C9.95416 13.4348 9.38877 14.0001 8.69775 14.0001ZM8.69775 8.9745C8.00672 8.9745 7.44134 8.40911 7.44134 7.71809C7.44134 7.02706 8.00672 6.46168 8.69775 6.46168C9.38877 6.46168 9.95416 7.02706 9.95416 7.71809C9.95416 8.40911 9.38877 8.9745 8.69775 8.9745ZM19.3144 13.686H12.4042C11.889 13.686 11.4619 13.2589 11.4619 12.7437C11.4619 12.2286 11.889 11.8014 12.4042 11.8014H19.3144C19.8295 11.8014 20.2567 12.2286 20.2567 12.7437C20.2567 13.2589 19.8295 13.686 19.3144 13.686ZM19.3144 8.66039H12.4042C11.889 8.66039 11.4619 8.23321 11.4619 7.71809C11.4619 7.20296 11.889 6.77578 12.4042 6.77578H19.3144C19.8295 6.77578 20.2567 7.20296 20.2567 7.71809C20.2567 8.23321 19.8295 8.66039 19.3144 8.66039Z"
    fill="#604FFD"
  />
</svg> 