<?xml version="1.0" standalone="no"?>
<!DOCTYPE svg PUBLIC "-//W3C//DTD SVG 20010904//EN"
 "http://www.w3.org/TR/2001/REC-SVG-20010904/DTD/svg10.dtd">
<svg version="1.0" xmlns="http://www.w3.org/2000/svg"
 width="2048.000000pt" height="2048.000000pt" viewBox="0 0 2048.000000 2048.000000"
 preserveAspectRatio="xMidYMid meet">

<g transform="translate(0.000000,2048.000000) scale(0.100000,-0.100000)"
fill="#000000" stroke="none">
<path d="M20403 18357 c-10 -13 -26 -23 -36 -21 -9 1 -15 -1 -12 -6 2 -4 -5
-19 -18 -32 -12 -13 -24 -33 -25 -44 -2 -10 -6 -21 -9 -24 -3 -3 -3 5 0 17 3
13 1 26 -4 29 -5 3 -9 2 -8 -3 4 -23 -2 -43 -11 -38 -6 4 -8 10 -6 14 3 4 -6
7 -18 7 -18 0 -22 -4 -18 -20 5 -19 6 -19 12 -1 4 11 9 14 13 8 4 -6 1 -15 -6
-20 -18 -14 -56 -10 -67 7 -7 10 -10 11 -10 3 0 -8 -14 -13 -34 -13 -35 0 -84
-20 -96 -40 -4 -7 -38 -14 -76 -17 -66 -4 -134 -28 -134 -46 0 -4 -4 -5 -10
-2 -5 3 -10 -2 -10 -11 0 -10 -3 -15 -6 -11 -3 3 -23 -10 -45 -30 l-38 -36 31
-21 c45 -31 52 -59 22 -91 -13 -14 -24 -23 -24 -19 0 4 -6 -1 -14 -12 -17 -23
-37 -25 -53 -4 -10 13 -11 12 -10 -4 2 -16 -5 -20 -35 -21 -21 -1 -38 2 -38 6
0 5 15 6 34 5 27 -3 33 0 29 11 -3 8 -9 11 -12 6 -7 -10 -63 -9 -80 1 -7 5
-10 2 -9 -6 2 -7 -2 -12 -8 -11 -6 1 -11 -5 -11 -12 0 -10 4 -12 12 -5 7 5 16
6 20 2 5 -4 5 -1 1 6 -4 6 -2 12 3 12 16 0 13 -16 -6 -31 -20 -17 -16 -17 -37
0 -9 8 -16 10 -15 5 3 -14 -12 -44 -23 -44 -5 0 -6 6 -2 13 4 7 3 9 -2 4 -5
-5 -9 -13 -9 -19 0 -6 -8 -15 -17 -19 -10 -5 -26 -14 -35 -19 -10 -6 -25 -13
-33 -16 -8 -3 -38 -17 -67 -30 -28 -13 -56 -24 -61 -24 -5 0 -15 -7 -22 -15
-7 -8 -21 -15 -31 -15 -11 0 -19 -4 -19 -10 0 -5 -6 -10 -13 -10 -7 0 -35 -22
-62 -50 -27 -27 -57 -50 -67 -50 -9 0 -20 -4 -23 -10 -3 -5 -27 -10 -52 -10
-30 0 -53 -7 -70 -20 -14 -11 -34 -20 -44 -20 -34 0 -31 -21 9 -60 l39 -39
-41 -39 c-23 -22 -49 -42 -58 -45 -10 -4 -18 -11 -18 -17 0 -5 -12 -10 -28
-10 -15 0 -39 -8 -52 -17 -14 -10 -38 -25 -55 -35 -16 -9 -29 -21 -27 -27 1
-7 -14 -11 -38 -11 -29 0 -40 -4 -40 -15 0 -8 -8 -15 -18 -15 -10 0 -56 -38
-102 -85 -63 -65 -80 -89 -72 -97 15 -15 16 -32 2 -23 -6 3 -7 -1 -4 -10 5
-13 9 -13 22 -3 11 9 9 4 -3 -13 -13 -18 -22 -23 -27 -15 -5 7 -8 6 -8 -4 0
-12 -2 -12 -9 -2 -6 10 -10 8 -14 -8 -3 -12 -10 -19 -16 -15 -6 3 -11 0 -11
-7 0 -9 -3 -9 -10 2 -9 13 -10 13 -10 0 0 -13 -1 -13 -10 0 -8 12 -10 12 -11
-5 0 -15 -3 -13 -11 9 -8 21 -13 25 -19 15 -7 -12 -9 -11 -9 1 0 13 -1 13 -10
0 -5 -8 -9 -22 -9 -30 0 -10 3 -8 9 5 6 15 7 11 7 -17 -1 -23 -4 -33 -9 -25
-7 10 -13 -17 -10 -44 1 -3 -11 -5 -25 -4 -25 1 -45 35 -21 35 6 0 7 -7 4 -16
-3 -9 -2 -12 5 -8 6 3 9 15 6 25 -3 11 -1 19 5 19 5 0 6 5 3 10 -3 6 -1 10 4
10 6 0 11 5 11 10 0 11 -42 13 -77 4 -13 -4 -20 -10 -17 -15 3 -5 -7 -9 -21
-9 -39 0 -30 -40 13 -59 40 -18 41 -30 2 -37 -16 -4 -35 -13 -41 -20 -6 -8
-22 -14 -35 -14 -12 0 -26 -4 -29 -10 -3 -5 -17 -10 -30 -10 -15 0 -39 -15
-64 -40 -22 -22 -49 -40 -60 -40 -21 0 -22 -2 -25 -41 0 -11 -9 -26 -18 -33
-10 -7 -16 -15 -13 -18 3 -2 -9 -3 -25 0 -22 3 -30 0 -30 -10 0 -17 31 -48 48
-48 7 0 12 -4 12 -10 0 -12 -45 -24 -59 -15 -7 4 -8 0 -4 -11 5 -14 2 -16 -15
-12 -12 4 -20 2 -16 -3 5 -8 -27 -14 -50 -10 -5 1 -4 -4 2 -12 10 -12 9 -14
-5 -14 -28 0 -63 -14 -58 -23 3 -4 -4 -10 -15 -13 -12 -3 -20 -14 -20 -25 0
-26 -93 -72 -145 -72 -22 0 -38 -6 -41 -15 -4 -8 -17 -15 -29 -15 -13 0 -27
-4 -30 -10 -3 -5 -16 -11 -28 -11 -17 -1 -18 -2 -4 -6 9 -2 17 -10 17 -17 0
-7 11 -23 24 -35 15 -14 22 -29 18 -40 -8 -22 -45 -61 -58 -61 -6 0 -17 -7
-24 -15 -6 -7 -32 -17 -56 -21 -29 -4 -48 -13 -55 -25 -10 -20 -73 -52 -123
-64 -35 -7 -71 -34 -109 -80 -29 -36 -28 -48 12 -97 17 -22 8 -48 -18 -48 -11
0 -22 -4 -26 -10 -3 -5 -33 -12 -66 -16 -32 -4 -62 -11 -65 -15 -3 -5 -12 -9
-21 -9 -9 0 -24 -7 -33 -15 -10 -9 -47 -18 -93 -21 -42 -4 -77 -11 -77 -15 0
-5 -6 -9 -13 -9 -7 0 -18 -5 -24 -11 -13 -13 10 -65 37 -82 25 -15 7 -37 -31
-37 -15 0 -30 -4 -33 -8 -3 -5 0 -369 5 -811 13 -1018 13 -1019 -119 -1289
-94 -191 -258 -319 -498 -385 -82 -23 -113 -26 -384 -32 -162 -4 -398 -11
-525 -15 -126 -5 -394 -13 -595 -19 -201 -5 -421 -13 -490 -16 -143 -7 -556 9
-573 23 -7 5 -34 15 -62 22 -27 7 -62 20 -77 29 -31 17 -35 16 -147 -58 -85
-56 -239 -156 -316 -203 -55 -34 -350 -220 -425 -268 -8 -5 -31 -21 -50 -35
-19 -14 -46 -30 -60 -37 -39 -20 -163 -104 -187 -127 -13 -12 -23 -32 -23 -44
-1 -13 -23 -45 -55 -77 l-55 -55 0 43 0 44 -31 -26 c-17 -14 -34 -26 -37 -26
-14 0 -80 -66 -85 -85 -4 -16 -5 -17 -6 -2 -1 15 -4 15 -23 5 -12 -7 -44 -34
-69 -60 -26 -27 -51 -48 -56 -48 -4 0 -64 -56 -132 -124 l-124 -124 39 -42
c60 -63 60 -67 -9 -137 -34 -35 -67 -63 -74 -63 -7 0 -13 -6 -13 -12 0 -7 -13
-25 -29 -41 l-28 -27 15 -78 c7 -42 18 -81 22 -87 5 -5 13 -39 20 -74 6 -35
18 -80 25 -100 8 -20 19 -63 25 -95 7 -33 16 -67 21 -75 4 -9 15 -47 24 -86 8
-38 26 -110 39 -160 13 -49 41 -153 61 -230 20 -77 42 -159 49 -183 6 -24 15
-44 21 -45 11 -2 48 53 100 148 74 138 108 201 150 275 23 41 64 116 90 165
122 228 187 340 208 359 41 38 95 76 121 86 14 5 26 14 26 19 0 5 17 15 38 22
20 6 39 16 42 20 3 5 39 15 80 23 41 8 89 20 105 27 20 8 147 14 395 19 201 5
424 13 495 20 72 6 177 15 235 20 101 9 203 39 233 69 6 6 16 11 22 11 15 0
177 168 207 215 50 80 57 94 83 156 31 77 45 186 24 193 -8 2 -44 11 -82 20
-89 20 -153 64 -178 123 -17 39 -19 70 -19 249 0 129 4 204 10 204 6 0 10 8
10 19 0 19 44 70 84 96 23 15 83 17 588 16 551 -2 564 -2 607 -23 55 -27 97
-91 106 -163 9 -70 -11 -316 -29 -359 -21 -51 -94 -126 -146 -149 -25 -11 -74
-23 -110 -26 l-65 -6 -7 -135 c-3 -74 -11 -157 -18 -185 -6 -27 -15 -80 -20
-117 -8 -64 -42 -153 -80 -208 -10 -14 -35 -52 -56 -85 -43 -67 -212 -292
-258 -344 -202 -226 -306 -286 -586 -340 -183 -36 -267 -42 -595 -47 -443 -6
-493 -11 -598 -61 -82 -39 -86 -43 -139 -124 -31 -46 -70 -109 -87 -139 -18
-30 -36 -62 -41 -70 -5 -8 -44 -78 -86 -155 -96 -174 -213 -353 -261 -400 -40
-39 -138 -75 -205 -75 -127 0 -290 40 -416 103 -16 8 -28 8 -39 1 -20 -13
-125 -199 -177 -314 -21 -47 -68 -141 -104 -210 -115 -219 -123 -234 -153
-305 -85 -195 -81 -187 -202 -435 -58 -118 -152 -321 -210 -450 -93 -209 -129
-287 -237 -515 -16 -33 -41 -89 -55 -125 -14 -36 -32 -76 -39 -90 -7 -14 -19
-43 -26 -65 -7 -22 -16 -44 -20 -50 -4 -5 -11 -21 -15 -35 -7 -22 -26 -68 -70
-165 -7 -16 -22 -50 -33 -75 -11 -25 -32 -72 -46 -105 -15 -33 -34 -71 -42
-85 -16 -26 -73 -146 -92 -192 -7 -16 -19 -28 -29 -28 -10 0 -70 35 -134 78
-63 42 -141 93 -173 112 -32 19 -73 45 -91 56 -28 19 -199 116 -288 164 -114
61 -622 310 -634 310 -3 0 -53 21 -112 46 -58 25 -128 55 -156 66 -27 11 -69
29 -93 39 -23 10 -48 19 -55 19 -7 0 -29 9 -50 19 -20 10 -49 22 -64 26 -16 3
-41 13 -58 21 -16 7 -50 20 -75 28 -80 26 -157 54 -176 64 -10 5 -44 17 -74
26 -30 10 -138 43 -240 75 -102 32 -201 62 -220 66 -19 4 -39 11 -45 15 -5 4
-37 13 -70 20 -33 7 -73 18 -90 25 -47 20 -95 28 -95 16 0 -6 -6 -11 -14 -11
-7 0 -21 -15 -30 -33 l-17 -32 5 49 6 49 -35 -47 c-20 -25 -42 -46 -49 -46 -8
0 -17 -8 -20 -18 -12 -33 -37 -72 -46 -72 -5 0 -11 -8 -13 -18 -3 -9 -5 6 -6
33 l-1 50 -25 -30 c-13 -16 -24 -43 -25 -58 0 -20 -6 -30 -20 -34 -11 -3 -20
-14 -20 -24 0 -30 -18 -31 -23 -2 l-4 28 -2 -30 c0 -18 -14 -46 -30 -65 l-29
-35 -10 25 c-11 27 -18 18 -24 -30 -4 -31 -38 -41 -38 -11 0 12 -4 21 -9 21
-5 0 -12 8 -14 18 -4 13 -5 12 -6 -5 -1 -25 -93 -129 -122 -138 -10 -4 -20
-14 -20 -23 -1 -9 -4 -2 -8 17 l-6 34 -72 -76 c-39 -41 -79 -92 -88 -112 -17
-35 -18 -36 -29 -13 -15 29 -44 35 -52 11 -3 -10 -10 -26 -15 -35 -5 -10 -9
-22 -9 -28 0 -13 -40 -71 -59 -86 -8 -6 -11 -16 -7 -22 4 -8 2 -10 -8 -6 -24
9 -114 -81 -122 -122 -3 -19 -10 -34 -15 -34 -5 0 -9 -5 -9 -11 0 -6 -9 -22
-20 -36 l-20 -26 0 67 c0 67 -13 88 -24 39 -8 -36 -38 -93 -48 -93 -5 0 -8 -6
-8 -13 0 -8 -12 -24 -26 -38 l-26 -24 44 -7 c23 -3 88 -16 143 -28 55 -12 132
-27 170 -35 174 -32 381 -79 685 -155 259 -65 307 -78 560 -153 129 -39 408
-135 465 -161 17 -8 64 -26 105 -41 41 -15 91 -33 110 -41 19 -7 55 -18 80
-25 25 -6 50 -14 55 -19 6 -4 34 -15 62 -24 29 -10 55 -22 58 -27 4 -5 13 -9
22 -9 9 0 41 -11 72 -26 31 -14 74 -33 95 -42 21 -9 224 -109 450 -222 226
-113 499 -248 606 -299 574 -275 672 -331 961 -548 102 -77 113 -83 157 -83
26 1 59 6 74 13 15 7 83 60 150 118 329 284 719 538 1238 807 245 126 655 312
875 396 39 15 79 31 90 36 23 10 132 53 190 73 488 176 882 302 1230 392 54
14 131 34 170 45 376 101 983 222 1415 284 350 49 476 63 890 96 366 30 1293
18 1367 -17 85 -40 154 -173 213 -413 11 -41 25 -95 33 -120 19 -57 48 -159
83 -280 14 -52 40 -133 56 -180 60 -173 88 -270 143 -490 30 -124 64 -256 75
-295 26 -96 26 -198 0 -240 -25 -41 -80 -78 -147 -99 -45 -15 -71 -16 -204 -7
-97 7 -158 7 -170 1 -10 -6 -98 -10 -196 -10 -214 0 -535 -16 -618 -30 -33 -6
-121 -17 -195 -24 -74 -8 -178 -21 -230 -29 -52 -9 -129 -21 -170 -27 -167
-26 -509 -88 -530 -96 -8 -3 -60 -14 -115 -25 -135 -26 -270 -54 -325 -68 -25
-6 -157 -38 -295 -72 -417 -102 -881 -236 -1285 -369 -250 -83 -462 -157 -505
-175 -16 -8 -43 -17 -60 -21 -16 -4 -39 -13 -50 -20 -11 -6 -31 -15 -45 -19
-27 -7 -143 -51 -175 -65 -11 -5 -62 -25 -113 -45 -51 -20 -101 -40 -110 -45
-9 -5 -51 -23 -92 -40 -41 -17 -88 -37 -105 -45 -16 -7 -61 -27 -100 -44 -116
-49 -505 -245 -631 -317 -224 -127 -452 -287 -564 -396 -19 -19 -55 -60 -80
-92 -170 -221 -492 -388 -870 -453 -123 -21 -384 -28 -515 -14 -322 35 -609
139 -815 297 -73 56 -161 144 -235 234 -184 225 -545 462 -1088 714 -54 25
-101 46 -104 46 -3 0 -19 6 -36 14 -246 112 -842 323 -1207 427 -208 60 -252
72 -320 90 -41 11 -111 29 -155 39 -44 10 -91 23 -105 28 -14 6 -54 16 -89 22
-35 6 -71 15 -80 20 -9 4 -54 15 -101 25 -47 9 -132 27 -190 40 -307 68 -393
85 -735 145 -266 47 -458 77 -545 85 -36 4 -81 11 -100 15 -19 5 -87 14 -150
20 -63 5 -162 16 -220 24 -238 34 -767 70 -805 56 -24 -9 -85 -69 -85 -84 -1
-6 -13 -20 -27 -31 -14 -11 -42 -35 -63 -52 -21 -18 -42 -33 -48 -33 -5 0 -12
-10 -16 -23 -5 -21 -7 -20 -48 20 l-42 42 -123 -125 c-68 -68 -123 -131 -123
-138 0 -7 -7 -19 -15 -26 -8 -7 -15 -20 -15 -30 0 -10 -9 -28 -20 -41 l-19
-24 -1 35 0 35 -92 -90 c-95 -92 -126 -115 -153 -115 -9 0 -53 -39 -99 -86
-59 -61 -89 -85 -100 -81 -9 4 -16 13 -16 20 0 8 -7 20 -15 27 -10 9 -15 9
-15 1 0 -6 -5 -11 -11 -11 -6 0 -28 -13 -48 -28 -20 -16 -44 -32 -53 -35 -10
-4 -18 -11 -18 -17 0 -14 -32 -50 -45 -50 -15 0 -65 -53 -65 -68 0 -7 -7 -12
-17 -12 -52 0 -123 -54 -283 -214 -91 -91 -172 -166 -181 -166 -9 0 -28 -9
-42 -20 -14 -11 -30 -20 -36 -20 -6 0 -11 -7 -11 -15 0 -8 -6 -15 -13 -15 -16
0 -55 -40 -71 -72 -6 -12 -22 -28 -35 -34 -13 -7 -43 -31 -67 -55 -48 -47 -66
-47 -91 2 -7 14 -20 23 -29 21 -16 -3 -73 -57 -109 -105 -11 -14 -25 -26 -31
-27 -14 0 -134 -125 -134 -139 0 -6 -6 -11 -13 -11 -8 0 -22 -9 -32 -20 -10
-11 -24 -20 -32 -20 -7 0 -13 -5 -13 -10 0 -6 -10 -15 -22 -20 -13 -6 -31 -14
-40 -20 -10 -5 -26 -14 -35 -19 -10 -4 -19 -17 -21 -28 -2 -11 -14 -31 -28
-44 -13 -12 -24 -27 -24 -32 0 -5 -9 -20 -20 -34 -11 -14 -20 -22 -20 -18 0 5
6 16 12 25 7 9 3 5 -10 -8 -12 -13 -19 -28 -16 -34 4 -6 2 -8 -3 -5 -6 4 -16
0 -23 -8 -7 -8 -17 -12 -22 -9 -5 3 -8 -1 -6 -9 2 -8 -19 -38 -46 -67 -27 -29
-46 -45 -43 -37 3 9 2 19 -3 22 -5 3 -10 -3 -13 -12 -3 -14 -4 -13 -3 2 1 11
6 19 12 18 7 -1 9 9 6 25 l-6 27 -7 -25 c-4 -14 -8 -18 -8 -10 -1 12 -4 11
-12 -3 -6 -9 -14 -15 -18 -13 -4 3 -6 -9 -4 -27 2 -29 2 -30 -6 -7 -9 24 -9
24 -10 3 -1 -15 -6 -21 -15 -17 -7 3 -22 -3 -31 -13 -10 -10 -28 -23 -39 -28
l-21 -11 -3 -1057 -2 -1057 10240 0 10240 0 0 9175 0 9175 -22 1 c-13 1 -30 0
-37 -1 -13 -1 -13 1 -2 14 8 9 11 16 8 16 -3 0 -14 -11 -24 -23z m12 -17 c3
-5 1 -10 -4 -10 -6 0 -11 5 -11 10 0 6 2 10 4 10 3 0 8 -4 11 -10z m-2168
-1492 c-3 -7 -5 -2 -5 12 0 14 2 19 5 13 2 -7 2 -19 0 -25z m-130 -53 c0 -8
-4 -12 -9 -9 -5 3 -6 10 -3 15 9 13 12 11 12 -6z m44 -102 c13 -16 12 -17 -3
-4 -17 13 -22 21 -14 21 2 0 10 -8 17 -17z m34 -12 c3 -5 2 -12 -3 -15 -5 -3
-9 1 -9 9 0 17 3 19 12 6z m-1530 -1101 c4 -6 -1 -7 -12 -3 -16 6 -16 5 -4
-11 8 -9 10 -16 5 -15 -5 1 -16 1 -24 0 -13 -1 -13 -2 0 -11 17 -11 9 -13 -15
-4 -13 5 -14 8 -3 15 10 7 10 9 -2 9 -9 1 -5 6 10 15 30 17 37 18 45 5z m374
-2107 c69 -35 117 -95 142 -175 23 -77 24 -108 3 -190 -30 -117 -107 -213
-212 -265 -48 -24 -69 -28 -137 -28 -65 0 -89 5 -128 25 -188 96 -214 366 -51
540 82 88 150 119 259 120 57 0 80 -5 124 -27z m-5410 -1629 c-18 -19 -35 -32
-37 -29 -7 6 18 65 42 100 l21 30 3 -34 c3 -27 -3 -40 -29 -67z m76 -74 c-8
-9 -15 -20 -15 -23 0 -10 -39 -47 -49 -47 -6 0 -17 -10 -25 -22 -16 -22 -16
-22 -16 -1 0 11 7 26 15 33 8 7 15 19 15 27 0 8 12 30 26 49 25 33 28 34 45
18 17 -15 18 -19 4 -34z m4135 -3969 c167 -35 364 -87 415 -109 11 -5 58 -21
105 -35 47 -15 144 -45 215 -67 72 -23 166 -53 210 -66 140 -44 368 -127 417
-151 53 -27 68 -47 68 -92 0 -36 -46 -93 -87 -109 -46 -18 -155 -32 -242 -32
-113 0 -329 -16 -696 -51 -55 -5 -161 -13 -235 -18 -369 -25 -601 -51 -840
-92 -149 -26 -267 -49 -283 -55 -10 -3 -61 -14 -115 -24 -53 -10 -135 -27
-182 -39 -47 -11 -125 -29 -174 -41 -49 -11 -97 -25 -107 -30 -10 -6 -27 -10
-38 -10 -45 0 -511 -153 -811 -267 -279 -105 -466 -187 -775 -338 -205 -101
-404 -195 -411 -195 -16 0 -454 -218 -809 -403 -270 -140 -370 -202 -554 -342
-32 -25 -62 -45 -65 -45 -4 0 -29 -17 -56 -37 -129 -99 -186 -119 -233 -83
-45 35 -38 80 29 186 217 347 585 725 1039 1065 185 139 432 305 613 411 40
24 94 55 120 71 26 15 54 30 62 34 8 3 60 32 115 62 316 178 864 420 1220 541
205 69 427 139 495 154 14 3 68 17 120 32 105 29 223 56 345 79 44 9 109 22
145 31 36 8 116 21 178 29 62 8 116 17 121 20 5 3 105 12 222 21 117 8 216 17
219 20 9 10 142 -4 240 -25z m-15689 -5613 c-3 -21 -6 -26 -9 -15 -3 17 3 47
11 47 2 0 1 -15 -2 -32z"/>
<path d="M20216 18237 c3 -10 9 -15 12 -12 3 3 0 11 -7 18 -10 9 -11 8 -5 -6z"/>
<path d="M19593 17905 c0 -8 4 -12 9 -9 5 3 6 10 3 15 -9 13 -12 11 -12 -6z"/>
<path d="M19704 17893 c16 -20 36 -23 36 -6 0 4 -3 3 -7 0 -3 -4 -16 1 -27 10
-21 18 -21 18 -2 -4z"/>
<path d="M18307 16923 c4 -9 0 -11 -11 -7 -12 5 -16 0 -15 -17 0 -23 1 -23 9
-4 l9 20 1 -20 1 -20 9 20 9 20 1 -20 c1 -19 2 -19 10 2 6 16 15 21 31 18 17
-3 20 -2 11 7 -17 17 -71 18 -65 1z"/>
<path d="M18261 16894 c0 -11 3 -14 6 -6 3 7 2 16 -1 19 -3 4 -6 -2 -5 -13z"/>
<path d="M18200 16847 c0 -1 -4 -18 -10 -36 -5 -19 -6 -30 -1 -25 10 11 24 64
16 64 -3 0 -5 -1 -5 -3z"/>
<path d="M15650 14903 c0 -15 -62 -43 -93 -43 -21 0 -28 -3 -19 -9 8 -4 13
-11 12 -15 -1 -4 0 -10 3 -14 2 -4 2 -2 1 5 -2 7 2 15 9 19 7 4 9 3 4 -1 -4
-5 0 -19 8 -32 l15 -23 -70 0 c-46 0 -69 -4 -65 -10 4 -6 11 -8 16 -5 5 3 6 0
3 -8 -3 -8 -1 -18 5 -22 6 -3 11 -17 11 -31 0 -19 -5 -24 -26 -24 -14 0 -40
-11 -58 -25 -18 -14 -42 -25 -54 -25 -39 0 -53 -10 -41 -31 5 -11 15 -17 22
-14 7 4 -1 -5 -17 -18 -16 -14 -44 -28 -63 -32 -41 -7 -41 -13 -3 -47 16 -14
26 -28 23 -32 -4 -3 -37 -6 -75 -6 -44 0 -67 -4 -63 -10 4 -6 10 -8 14 -6 16
11 7 -25 -12 -41 -15 -14 -41 -19 -128 -21 -60 -2 -109 -8 -109 -12 0 -5 16
-22 36 -38 l35 -29 -42 -6 c-23 -3 -45 -10 -48 -14 -14 -22 -41 -21 -66 3 -14
13 -27 24 -29 24 -1 0 -26 -11 -54 -25 -29 -14 -55 -25 -59 -25 -5 -1 -21 -12
-38 -25 l-30 -25 65 -1 c36 -1 57 -3 48 -6 -10 -2 -18 -9 -18 -14 0 -5 -6 -9
-14 -9 -8 0 -24 -9 -37 -20 l-24 -19 65 -2 c36 -1 57 -3 48 -6 -10 -2 -18 -8
-18 -13 0 -5 -13 -11 -30 -15 -16 -4 -30 -11 -30 -16 0 -5 -11 -9 -25 -9 -16
0 -25 -6 -25 -15 0 -8 -8 -15 -18 -15 -20 0 -65 42 -57 53 3 4 2 5 -2 2 -4 -3
-18 5 -32 18 -25 23 -29 24 -121 15 -52 -5 -103 -13 -112 -18 -10 -6 -28 -10
-41 -10 -14 0 -40 -17 -67 -45 l-44 -45 55 0 c30 0 60 5 65 10 6 6 35 13 65
15 30 3 47 3 39 -1 -8 -3 -24 -10 -35 -15 -11 -6 -43 -13 -69 -17 -30 -4 -51
-13 -54 -22 -4 -12 -2 -13 9 -4 8 6 25 11 39 12 18 1 21 -1 11 -8 -8 -4 -20
-6 -28 -3 -9 4 -11 0 -7 -13 4 -14 3 -16 -4 -5 -6 8 -12 9 -16 3 -3 -6 -2 -13
4 -17 5 -3 10 -11 10 -18 0 -6 -7 -2 -16 9 -14 18 -15 18 -9 -6 l6 -25 -14 24
c-8 13 -17 19 -20 14 -4 -6 3 -20 14 -31 11 -12 15 -22 9 -22 -6 0 -8 -5 -5
-10 4 -6 11 -7 17 -4 7 5 8 2 4 -5 -6 -9 -13 -8 -27 5 -20 18 -27 6 -8 -13 8
-8 7 -13 -2 -18 -7 -5 -10 -4 -5 3 3 6 2 13 -4 17 -5 3 -10 1 -10 -4 0 -6 -8
-11 -17 -11 -16 0 -16 1 0 13 9 6 15 21 12 32 -2 11 -4 24 -4 28 -1 5 -5 6
-11 2 -6 -3 -6 -15 0 -30 7 -18 5 -25 -7 -29 -13 -5 -13 -9 -2 -22 7 -8 8 -14
3 -13 -5 1 -26 1 -46 0 -33 -1 -38 -4 -38 -24 0 -13 5 -28 11 -34 9 -9 2 -13
-25 -18 -20 -4 -39 -11 -42 -16 -3 -5 -23 -9 -44 -9 -21 0 -42 -4 -45 -10 -8
-13 333 -13 490 0 66 6 378 14 693 19 666 10 610 -1 624 118 4 38 4 287 1 556
-5 397 -9 487 -20 487 -7 0 -13 -3 -13 -7z m-1240 -1018 c0 -8 -83 -45 -102
-45 -10 0 -18 5 -18 10 0 6 8 10 18 10 9 0 28 7 42 14 25 14 60 20 60 11z
m-236 -68 c4 4 4 -1 0 -11 -5 -12 -4 -17 3 -13 5 3 10 0 10 -8 0 -21 -3 -19
-28 18 -13 17 -16 26 -8 20 9 -7 19 -10 23 -6z m-23 -29 c12 -18 16 -27 8 -20
-11 10 -17 8 -31 -10 -16 -21 -18 -21 -12 -3 5 19 5 19 -9 2 -13 -15 -15 -15
-20 -2 -4 8 -3 14 1 14 20 -3 25 2 12 11 -11 8 -8 9 13 6 29 -5 34 3 15 22 -7
7 -9 12 -6 12 4 0 17 -15 29 -32z"/>
<path d="M15138 14723 c-35 -9 -17 -23 28 -23 40 0 45 2 34 15 -12 15 -29 17
-62 8z"/>
<path d="M15220 14651 c0 -6 -15 -12 -32 -14 -18 -2 -2 -5 36 -5 63 -2 68 -1
50 13 -22 16 -54 20 -54 6z"/>
<path d="M15010 14550 c0 -5 5 -10 10 -10 6 0 10 5 10 10 0 6 -4 10 -10 10 -5
0 -10 -4 -10 -10z"/>
<path d="M15065 14490 c-3 -5 -24 -10 -46 -10 -21 0 -39 -4 -39 -10 0 -6 30
-10 71 -10 70 0 80 8 39 30 -13 7 -21 7 -25 0z"/>
<path d="M14473 14214 c-40 -45 -24 -64 34 -37 21 9 47 20 57 23 18 5 18 6 2
23 -25 25 -67 21 -93 -9z"/>
<path d="M14580 14130 l-25 -8 27 -1 c15 -1 30 4 33 9 7 11 0 11 -35 0z"/>
<path d="M14113 13970 c-60 -32 -66 -40 -47 -61 22 -24 38 -24 32 -1 -3 10 0
26 7 36 12 16 14 16 21 -6 4 -13 7 -26 7 -29 -1 -3 5 -6 13 -6 12 0 12 3 0 22
-12 18 -12 24 0 40 8 10 14 13 14 6 0 -7 5 -9 10 -6 13 8 3 25 -13 24 -7 -1
-27 -9 -44 -19z m-23 -35 c-6 -8 -8 -20 -4 -27 5 -10 4 -10 -6 -1 -11 10 -11
15 0 28 7 8 15 15 17 15 3 0 0 -7 -7 -15z"/>
<path d="M11250 11505 c-13 -14 -29 -25 -35 -25 -14 0 -55 -42 -55 -57 0 -5
-9 -18 -20 -28 -11 -10 -20 -27 -20 -39 0 -16 15 -6 70 49 39 38 70 77 70 85
0 9 5 21 12 28 7 7 10 12 7 12 -3 0 -16 -11 -29 -25z"/>
<path d="M9340 9985 c-7 -8 -20 -15 -30 -15 -9 0 -29 -9 -43 -20 -14 -11 -28
-20 -32 -20 -9 0 -85 -75 -85 -84 0 -3 10 -6 21 -6 18 0 19 -2 9 -15 -7 -8
-19 -15 -26 -15 -26 0 -84 -37 -125 -81 l-42 -44 34 -6 34 -6 -28 -11 c-16 -7
-32 -12 -37 -12 -12 0 -74 -34 -78 -42 -2 -5 -10 -8 -18 -8 -9 0 -14 -11 -14
-35 0 -19 5 -35 11 -35 8 0 8 -4 0 -14 -9 -11 -11 -111 -9 -383 l3 -368 27
-50 c34 -63 84 -115 142 -144 35 -18 62 -24 123 -24 124 -1 210 49 269 155
l29 53 3 623 3 622 -64 0 c-45 0 -68 -5 -77 -15z m-160 -270 c-29 -30 -41 -35
-78 -35 l-45 0 26 20 c14 11 36 20 50 20 13 0 30 7 37 15 7 8 20 15 28 15 11
0 5 -11 -18 -35z m127 -11 c4 -10 -8 -30 -33 -55 l-38 -39 -23 22 c-17 16 -20
24 -12 35 6 7 16 13 21 13 5 0 21 9 35 20 31 24 42 25 50 4z"/>
<path d="M8193 8933 c-18 -7 -33 -18 -33 -23 0 -6 -11 -10 -24 -10 -14 0 -28
-4 -31 -10 -4 -6 13 -10 43 -10 51 0 87 24 80 53 -2 12 -8 12 -35 0z"/>
<path d="M8190 8860 c0 -5 -12 -13 -27 -16 -16 -4 -57 -37 -94 -75 -36 -38
-70 -69 -75 -69 -5 0 -28 -17 -51 -37 -23 -21 -51 -45 -63 -53 l-21 -15 23 -7
c57 -16 208 6 208 31 0 5 8 11 18 13 27 7 89 88 107 138 22 62 20 100 -5 100
-11 0 -20 -4 -20 -10z"/>
<path d="M6742 7638 c-18 -18 -15 -68 3 -68 9 0 15 9 15 24 0 13 3 31 6 40 7
19 -7 21 -24 4z"/>
<path d="M6565 7620 c-16 -17 -16 -20 -3 -15 9 4 19 13 22 21 7 19 2 18 -19
-6z"/>
<path d="M6542 7500 c-14 -23 -17 -79 -3 -64 8 9 25 84 19 84 -2 0 -9 -9 -16
-20z"/>
<path d="M6346 7401 c-12 -13 -15 -27 -11 -41 9 -27 21 -16 30 28 8 37 5 39
-19 13z"/>
<path d="M6399 7363 c-13 -16 -12 -17 4 -4 9 7 17 15 17 17 0 8 -8 3 -21 -13z"/>
<path d="M6370 7319 c0 -5 5 -7 10 -4 6 3 10 8 10 11 0 2 -4 4 -10 4 -5 0 -10
-5 -10 -11z"/>
<path d="M310 2342 c0 -6 -6 -9 -13 -6 -8 3 -20 -2 -27 -10 -7 -9 -16 -13 -21
-10 -5 3 -13 -5 -18 -18 -6 -13 -10 -17 -11 -8 0 12 -3 11 -11 -3 -6 -9 -14
-15 -19 -12 -4 3 -4 -11 0 -30 4 -19 5 -38 1 -42 -3 -4 13 9 35 30 31 29 40
44 36 60 -4 15 -2 19 10 14 17 -6 56 28 45 40 -4 3 -7 1 -7 -5z m-10 -16 c0
-3 -4 -8 -10 -11 -5 -3 -10 -1 -10 4 0 6 5 11 10 11 6 0 10 -2 10 -4z m-49
-36 c2 -8 0 -16 -6 -17 -5 -1 -12 -10 -16 -20 -7 -17 -8 -17 -9 2 -2 14 -5 12
-10 -10 l-9 -30 2 30 c1 19 7 29 15 27 8 -1 16 7 19 18 6 23 9 23 14 0z"/>
</g>
</svg>
