<svg
  xmlns="http://www.w3.org/2000/svg"
  width="32"
  height="32"
  viewBox="0 0 40 40"
>
  <path
    d="M33 15C33 14.4696 32.7893 13.9609 32.4142 13.5858C32.0391 13.2107 31.5304 13 31 13H27V9C27 8.46957 26.7893 7.96086 26.4142 7.58579C26.0391 7.21071 25.5304 7 25 7H9C8.46957 7 7.96086 7.21071 7.58579 7.58579C7.21071 7.96086 7 8.46957 7 9V25C7.00059 25.1881 7.05423 25.3723 7.15478 25.5313C7.25532 25.6903 7.39868 25.8177 7.56839 25.8989C7.7381 25.9801 7.92728 26.0118 8.11418 25.9903C8.30108 25.9689 8.47814 25.8951 8.625 25.7775L13 22.25V26C13 26.5304 13.2107 27.0391 13.5858 27.4142C13.9609 27.7893 14.4696 28 15 28H26.6987L31.375 31.7775C31.5519 31.9206 31.7724 31.9991 32 32C32.2652 32 32.5196 31.8946 32.7071 31.7071C32.8946 31.5196 33 31.2652 33 31V15ZM27.6812 26.2225C27.5043 26.0794 27.2838 26.0009 27.0562 26H15V22H25C25.5304 22 26.0391 21.7893 26.4142 21.4142C26.7893 21.0391 27 20.5304 27 20V15H31V28.9062L27.6812 26.2225Z"
    fill="#000"
  />
</svg> 