<?xml version="1.0" encoding="UTF-8"?>
<svg fill="currentColor" viewBox="0 0 24 24" xmlns="http://www.w3.org/2000/svg" aria-hidden="true">
  <path d="M12 2C6.477 2 2 6.477 2 12c0 5.523 4.477 10 10 10 1.5 0 2.921-.33 4.21-.92l3.715 1.483a1 1 0 001.317-1.024l-.473-4.593A9.96 9.96 0 0022 12c0-5.523-4.477-10-10-10zm0 18a8 8 0 110-16 8 8 0 010 16z"></path>
  <circle cx="8" cy="10" r="1.5" fill="currentColor"></circle>
  <circle cx="12" cy="10" r="1.5" fill="currentColor"></circle>
  <circle cx="16" cy="10" r="1.5" fill="currentColor"></circle>
</svg> 