<svg
  xmlns="http://www.w3.org/2000/svg"
  width="32"
  height="32"
  viewBox="0 0 40 40"
>
  <path
    d="M16 17.2362L17.3825 20H14.6175L16 17.2362ZM33 10V30C33.0001 30.1705 32.9566 30.3383 32.8736 30.4873C32.7907 30.6363 32.671 30.7616 32.5259 30.8513C32.3808 30.941 32.2153 30.9921 32.0449 30.9997C31.8745 31.0074 31.705 30.9713 31.5525 30.895L28 29.1175L24.4475 30.895C24.3086 30.9645 24.1554 31.0007 24 31.0007C23.8446 31.0007 23.6914 30.9645 23.5525 30.895L20 29.1175L16.4475 30.895C16.3086 30.9645 16.1554 31.0007 16 31.0007C15.8446 31.0007 15.6914 30.9645 15.5525 30.895L12 29.1175L8.4475 30.895C8.29499 30.9713 8.12549 31.0074 7.95511 30.9997C7.78474 30.9921 7.61916 30.941 7.4741 30.8513C7.32904 30.7616 7.20934 30.6363 7.12636 30.4873C7.04337 30.3383 6.99988 30.1705 7 30V10C7 9.46957 7.21071 8.96086 7.58579 8.58579C7.96086 8.21071 8.46957 8 9 8H31C31.5304 8 32.0391 8.21071 32.4142 8.58579C32.7893 8.96086 33 9.46957 33 10ZM20.895 22.5525L16.895 14.5525C16.8121 14.3861 16.6844 14.2461 16.5263 14.1483C16.3682 14.0504 16.1859 13.9986 16 13.9986C15.8141 13.9986 15.6318 14.0504 15.4737 14.1483C15.3156 14.2461 15.1879 14.3861 15.105 14.5525L11.105 22.5525C10.9863 22.7899 10.9668 23.0647 11.0507 23.3164C11.1346 23.5682 11.3151 23.7763 11.5525 23.895C11.7899 24.0137 12.0647 24.0332 12.3164 23.9493C12.5682 23.8654 12.7763 23.6849 12.895 23.4475L13.6175 22H18.3825L19.105 23.4475C19.1638 23.565 19.2451 23.6698 19.3444 23.7559C19.4436 23.842 19.5589 23.9077 19.6836 23.9493C19.8082 23.9908 19.9399 24.0074 20.0709 23.9981C20.202 23.9888 20.33 23.9538 20.4475 23.895C20.565 23.8362 20.6698 23.7549 20.7559 23.6556C20.842 23.5563 20.9077 23.4411 20.9493 23.3164C20.9908 23.1918 21.0074 23.0601 20.9981 22.9291C20.9888 22.798 20.9538 22.67 20.895 22.5525ZM30 19C30 18.7348 29.8946 18.4804 29.7071 18.2929C29.5196 18.1054 29.2652 18 29 18H27V16C27 15.7348 26.8946 15.4804 26.7071 15.2929C26.5196 15.1054 26.2652 15 26 15C25.7348 15 25.4804 15.1054 25.2929 15.2929C25.1054 15.4804 25 15.7348 25 16V18H23C22.7348 18 22.4804 18.1054 22.2929 18.2929C22.1054 18.4804 22 18.7348 22 19C22 19.2652 22.1054 19.5196 22.2929 19.7071C22.4804 19.8946 22.7348 20 23 20H25V22C25 22.2652 25.1054 22.5196 25.2929 22.7071C25.4804 22.8946 25.7348 23 26 23C26.2652 23 26.5196 22.8946 26.7071 22.7071C26.8946 22.5196 27 22.2652 27 22V20H29C29.2652 20 29.5196 19.8946 29.7071 19.7071C29.8946 19.5196 30 19.2652 30 19Z"
    fill="#000"
  />
</svg> 