<svg
  xmlns="http://www.w3.org/2000/svg"
  width="40"
  height="38"
  viewBox="0 0 40 40"
  fill="none"
>
  <path
    d="M10 15.98V15C10 10 12 8 17 8H23C28 8 30 10 30 15V21C30 26 28 28 23 28H22"
    stroke="white"
    stroke-width="2"
    stroke-linecap="round"
    stroke-linejoin="round"
  />
  <path
    d="M26.01 11.98L21 17H25.01"
    stroke="white"
    stroke-width="2"
    stroke-linecap="round"
    stroke-linejoin="round"
  />
  <path
    d="M21 17V12.99"
    stroke="white"
    stroke-width="2"
    stroke-linecap="round"
    stroke-linejoin="round"
  />
  <path
    d="M19 22.15V24.85C19 27.1 18.1 28 15.85 28H13.15C10.9 28 10 27.1 10 24.85V22.15C10 19.9 10.9 19 13.15 19H15.85C18.1 19 19 19.9 19 22.15Z"
    stroke="white"
    stroke-width="2"
    stroke-linecap="round"
    stroke-linejoin="round"
  />
</svg> 